<svg xmlns="http://www.w3.org/2000/svg" width="120" height="51" class="logo" version="1.1"><path d="M36.229,22.372c0,0.069-0.023,0.138-0.046,0.207l-4.301,14.72c-0.115,0.414-0.368,0.621-0.759,0.621l-1.518,0c-0.368,0-0.621-0.184-0.736-0.598l-2.99-10.534l-0.046,0l-2.99,10.465c-0.161,0.529-0.345,0.667-0.782,0.667l-1.472,0c-0.391,0-0.598-0.115-0.759-0.69l-4.393-14.559c-0.023-0.115-0.046-0.207-0.046-0.299c0-0.253,0.138-0.368,0.414-0.368l2.208,0c0.483,0,0.69,0.207,0.782,0.575l2.806,10.603l0.023,0l2.921-10.672c0.092-0.368,0.345-0.506,0.69-0.506l1.541,0c0.368,0,0.552,0.184,0.644,0.483l2.921,10.695l0.046,0l2.783-10.649c0.115-0.414,0.368-0.529,0.713-0.529l1.978,0c0.253,0,0.368,0.161,0.368,0.368z M42.5425,23.844c0,0.897-0.782,1.449-1.541,1.449s-1.564-0.506-1.564-1.426s0.759-1.472,1.564-1.472c0.782,0,1.541,0.529,1.541,1.449z M42.4045,37.345c0,0.414-0.184,0.575-0.575,0.575l-1.61,0c-0.414,0-0.598-0.161-0.598-0.575l0-10.051c0-0.391,0.23-0.529,0.598-0.529l1.61,0c0.368,0,0.575,0.115,0.575,0.529l0,10.051z M56.814,37.322c0,0.391-0.138,0.598-0.552,0.598l-1.656,0c-0.414,0-0.552-0.207-0.552-0.598l0-6.256c0-1.265-0.345-2.162-1.748-2.162c-0.897,0-2.001,0.483-2.714,1.104l0,7.337c0,0.391-0.161,0.575-0.552,0.575l-1.679,0c-0.345,0-0.552-0.184-0.552-0.552l0-10.028c0-0.368,0.161-0.575,0.575-0.575l1.495,0c0.322,0,0.529,0.092,0.552,0.437l0.023,0.598c1.058-0.851,2.392-1.334,3.726-1.334c2.576,0,3.634,1.61,3.634,4.117l0,6.739z M78.0775,37.299c0.023,0.391-0.092,0.621-0.529,0.621l-1.863,0c-0.483,0-0.575-0.23-0.598-0.759l-0.322-9.338l-0.046,0l-3.91,9.683c-0.138,0.368-0.368,0.414-0.621,0.414l-0.805,0c-0.345,0-0.552-0.069-0.713-0.437l-4.347-9.66l-0.046,0l-0.207,9.522c0,0.506-0.207,0.575-0.621,0.575l-1.564,0c-0.437,0-0.621-0.161-0.598-0.598l0.575-14.697c0.023-0.483,0.184-0.621,0.552-0.621l1.357,0c0.46,0,0.621,0.161,0.782,0.506l5.313,11.362l0.046,0l4.853-11.362c0.138-0.345,0.322-0.506,0.736-0.506l1.357,0c0.368,0,0.506,0.138,0.529,0.506z M93.361,37.483c0,0.276-0.184,0.437-0.46,0.437l-1.104,0c-1.196,0-1.725-0.575-1.886-1.357l-0.046,0c-0.575,0.851-2.07,1.633-3.335,1.633c-3.243,0-4.715-2.668-4.715-5.658c0-3.979,2.392-6.072,4.968-6.072c1.219,0,2.369,0.552,2.944,1.334l0.046-0.621c0.023-0.253,0.207-0.414,0.483-0.414l1.61,0c0.299,0,0.483,0.161,0.483,0.506l0,7.981c0,0.322,0.046,0.552,0.138,0.667c0.069,0.069,0.161,0.092,0.276,0.092l0.184,0c0.276,0,0.414,0.092,0.414,0.391l0,1.081z M89.566,34.355l0-4.439c-0.46-0.667-1.403-1.173-2.277-1.173c-1.403,0-2.599,1.196-2.599,3.611c0,1.932,0.736,3.565,2.438,3.565c1.127,0,2.093-0.851,2.438-1.564z M103.0325,26.857c0,0.069,0,0.138-0.023,0.207l-0.253,1.633c-0.023,0.207-0.138,0.299-0.322,0.299l-0.092,0c-0.184-0.046-0.414-0.069-0.621-0.069c-0.782,0-1.633,0.414-2.208,1.104l0,7.314c0,0.368-0.161,0.575-0.552,0.575l-1.679,0c-0.368,0-0.552-0.184-0.552-0.575l0-7.176l0-2.829c0-0.46,0.23-0.575,0.575-0.575l1.472,0c0.368,0,0.575,0.115,0.575,0.437l0.023,0.736c0.713-0.897,1.495-1.472,2.783-1.472c0.184,0,0.437,0.046,0.644,0.092c0.161,0.046,0.23,0.115,0.23,0.299z M112.98,37.23c0,0.23-0.115,0.345-0.345,0.437c-0.713,0.299-1.656,0.529-2.576,0.529c-1.173,0-2.185-0.299-2.76-0.966c-0.713-0.805-0.736-1.748-0.736-3.427l0-5.129l-1.081,0c-0.437,0-0.506-0.092-0.506-0.575l0-0.874c0-0.276,0.138-0.46,0.414-0.46l1.173,0l0-2.507c0-0.391,0.207-0.506,0.575-0.552l1.656-0.207l0.115,0c0.299,0,0.437,0.161,0.437,0.506l0,2.76l2.599,0c0.276,0,0.437,0.092,0.437,0.391l0,1.081c0,0.276-0.184,0.437-0.46,0.437l-2.576,0l0,5.267c0,0.69,0.046,1.196,0.299,1.564c0.207,0.299,0.529,0.483,1.081,0.483c0.575,0,1.058-0.138,1.472-0.276c0.092-0.023,0.161-0.046,0.23-0.046c0.161,0,0.253,0.092,0.299,0.276l0.23,1.15c0.023,0.069,0.023,0.092,0.023,0.138z"/></svg>